<svg xmlns="http://www.w3.org/2000/svg" width="349" height="334" class="balloons" version="1.1" viewBox="0 0 349 334"><g fill="none" fill-rule="evenodd" stroke="none" stroke-width="1" transform="translate(-437.000000, -162.000000)"><g id="Page-1" transform="translate(437.000000, 163.000000)"><path id="Fill-1" fill="#E24270" d="M180.6994,40.6195 C182.8354,68.3515 156.5624,100.2655 146.3584,101.0615 C137.4294,101.7585 105.3044,74.3205 103.1704,46.5885 C101.0344,18.8545 117.2174,2.2795 138.6264,0.6315 C160.0354,-1.0175 178.5644,12.8865 180.6994,40.6195"/><path id="Stroke-3" stroke="#BB0049" stroke-width="3" d="M180.6994,40.6195 C182.8354,68.3515 156.5624,100.2655 146.3584,101.0615 C137.4294,101.7585 105.3044,74.3205 103.1704,46.5885 C101.0344,18.8545 117.2174,2.2795 138.6264,0.6315 C160.0354,-1.0175 178.5644,12.8865 180.6994,40.6195 Z"/><path id="Stroke-5" stroke="#808285" stroke-width="2" d="M146.6301,104.5912 C146.6301,104.5912 141.8591,131.8042 164.7331,190.3452 C188.4391,251.0172 165.7161,284.4232 165.7161,284.4232"/><path id="Fill-7" fill="#E24270" d="M145.7775,101.5502 L141.9925,107.0722 C141.3445,108.0192 142.5105,109.1482 143.4345,108.4702 L146.6305,106.1272 L151.0575,108.4272 C151.9005,108.8642 152.7115,107.7932 152.0615,107.1012 L146.7715,101.4742 C146.4915,101.1762 146.0075,101.2132 145.7775,101.5502"/><path id="Stroke-9" stroke="#BB0049" stroke-width="3" d="M145.7775,101.5502 L141.9925,107.0722 C141.3445,108.0192 142.5105,109.1482 143.4345,108.4702 L146.6305,106.1272 L151.0575,108.4272 C151.9005,108.8642 152.7115,107.7932 152.0615,107.1012 L146.7715,101.4742 C146.4915,101.1762 146.0075,101.2132 145.7775,101.5502 Z"/><path id="Fill-11" fill="#F7941D" d="M241.2297,91.8754 C237.0627,114.2354 210.7957,134.1294 203.0037,132.6874 C196.1867,131.4244 177.8787,103.2054 182.0467,80.8454 C186.2137,58.4844 201.7527,48.6664 218.0957,51.7124 C234.4387,54.7584 245.3977,69.5154 241.2297,91.8754"/><path id="Stroke-13" stroke="#F15A29" stroke-width="3" d="M241.2297,91.8754 C237.0627,114.2354 210.7957,134.1294 203.0037,132.6874 C196.1867,131.4244 177.8787,103.2054 182.0467,80.8454 C186.2137,58.4844 201.7527,48.6664 218.0957,51.7124 C234.4387,54.7584 245.3977,69.5154 241.2297,91.8754 Z"/><path id="Stroke-15" stroke="#808285" stroke-width="2" d="M203.0324,135.1225 C203.0324,135.1225 215.7734,144.3415 200.9814,183.3805 C154.6114,305.7595 230.7424,293.3725 195.1144,306.2815"/><path id="Fill-17" fill="#F7941D" d="M204.0832,132.4154 L200.7072,136.5814 C200.1292,137.2944 200.9332,138.3124 201.7002,137.8414 L204.3552,136.2104 L207.5712,138.4604 C208.1842,138.8894 208.8972,138.0864 208.4552,137.4684 L204.8542,132.4374 C204.6642,132.1724 204.2892,132.1604 204.0832,132.4154"/><path id="Stroke-19" stroke="#F15A29" stroke-width="2" d="M204.0832,132.4154 L200.7072,136.5814 C200.1292,137.2944 200.9332,138.3124 201.7002,137.8414 L204.3552,136.2104 L207.5712,138.4604 C208.1842,138.8894 208.8972,138.0864 208.4552,137.4684 L204.8542,132.4374 C204.6642,132.1724 204.2892,132.1604 204.0832,132.4154 Z"/><polygon id="Fill-21" fill="#E24270" points="8.281 133.769 0 129.682 4.087 121.401 12.367 125.488"/><polygon id="Fill-23" fill="#E24270" points="344.76 213.841 336.48 209.754 340.566 201.473 348.847 205.56"/><polygon id="Fill-25" fill="#2BB673" points="221.812 202.149 216.698 194.461 224.387 189.345 229.501 197.035"/><polygon id="Fill-27" fill="#2BB673" points="42.081 242.527 36.967 234.839 44.655 229.724 49.769 237.413"/><polygon id="Fill-29" fill="#C739AE" points="260.816 126.785 252.535 122.698 256.621 114.417 264.902 118.504"/><path id="Fill-31" fill="#27AAE1" d="M64.7531,141.6078 C68.9201,163.9678 95.1871,183.8628 102.9791,182.4198 C109.7961,181.1568 128.1031,152.9378 123.9361,130.5778 C119.7681,108.2168 104.2301,98.3998 87.8871,101.4458 C71.5441,104.4918 60.5851,119.2478 64.7531,141.6078"/><path id="Stroke-33" stroke="#1B75BC" stroke-width="3" d="M64.7531,141.6078 C68.9201,163.9678 95.1871,183.8628 102.9791,182.4198 C109.7961,181.1568 128.1031,152.9378 123.9361,130.5778 C119.7681,108.2168 104.2301,98.3998 87.8871,101.4458 C71.5441,104.4918 60.5851,119.2478 64.7531,141.6078 Z"/><path id="Stroke-35" stroke="#808285" stroke-width="2" d="M102.9504,184.8559 C102.9504,184.8559 89.4614,193.3719 103.5294,226.3139 C126.9834,281.2349 91.3034,269.3449 105.6424,331.8779"/><path id="Fill-37" fill="#27AAE1" d="M101.8996,182.1479 L105.2746,186.3139 C105.8526,187.0269 105.0496,188.0449 104.2816,187.5739 L101.6266,185.9429 L98.4116,188.1929 C97.7986,188.6219 97.0856,187.8199 97.5276,187.2009 L101.1276,182.1709 C101.3176,181.9049 101.6936,181.8939 101.8996,182.1479"/><path id="Stroke-39" stroke="#1B75BC" stroke-width="2" d="M101.8996,182.1479 L105.2746,186.3139 C105.8526,187.0269 105.0496,188.0449 104.2816,187.5739 L101.6266,185.9429 L98.4116,188.1929 C97.7986,188.6219 97.0856,187.8199 97.5276,187.2009 L101.1276,182.1709 C101.3176,181.9049 101.6936,181.8939 101.8996,182.1479 Z"/></g></g></svg>