<svg xmlns="http://www.w3.org/2000/svg" id="Layer_1" aria-hidden="true" data-name="Layer 1" viewBox="0 0 354 200.65"><defs><style>.cls-1{fill:#fff}.cls-1,.cls-10,.cls-12,.cls-14,.cls-2,.cls-5,.cls-6,.cls-7,.cls-8,.cls-9{stroke:#243038;stroke-miterlimit:10;stroke-width:2px}.cls-2{fill:#fddfbb}.cls-3{fill:#243038}.cls-4{fill:#f7931e}.cls-5,.cls-7{fill:none}.cls-5{stroke-linecap:round}.cls-6{fill:#d3b3ab}.cls-8{fill:#526573}.cls-9{fill:#fbb5b7}.cls-10{fill:#e8d4b6}.cls-11{fill:#c49449}.cls-12{fill:#f2f3f5}.cls-13{fill:#b2bac1}.cls-14{fill:#f55157}</style></defs><title>Closed-Discussions-400x250</title><path d="M246,195.65c-19.33,0-35,9.85-35,22v10h70v-10C281,205.5,265.33,195.65,246,195.65Z" class="cls-1" transform="translate(-23 -28)"/><polygon points="230 172.65 223 183.65 216 172.65 216 154.65 230 154.65 230 172.65" class="cls-2"/><rect width="52" height="10.11" x="197" y="135.95" class="cls-2" rx="5" ry="5"/><path d="M225.73,173.41a20.27,20.27,0,1,0,40.54,0v-8.79a20.27,20.27,0,1,0-40.54,0Z" class="cls-2" transform="translate(-23 -28)"/><circle cx="214.22" cy="140" r="3.38" class="cls-3"/><circle cx="231.78" cy="140" r="3.38" class="cls-3"/><path d="M246,178.26a2.7,2.7,0,0,0,2.7-2.7h-5.4A2.7,2.7,0,0,0,246,178.26Z" class="cls-4" transform="translate(-23 -28)"/><path d="M241.23,184.05a6.06,6.06,0,0,0,9.54,0" class="cls-5" transform="translate(-23 -28)"/><rect width="3.95" height="15.12" x="239" y="120.65" class="cls-6"/><path d="M225.73,164.62V145.15a4,4,0,0,1,4-4H272c0,11.5-6.68,14-13.84,14-4.34,0-13.88-1-20.73-1.7a7,7,0,0,0-7.75,7v4.16Z" class="cls-6" transform="translate(-23 -28)"/><path d="M232.22,197.42l-1.59,2.89a5,5,0,0,0-.07,4.72l7.12,13.74a2,2,0,0,0,3.25.43l5.07-5.55" class="cls-7" transform="translate(-23 -28)"/><path d="M259.78,197.42l1.59,2.89a5,5,0,0,1,.07,4.72l-7.12,13.74a2,2,0,0,1-3.25.43L246,213.65" class="cls-7" transform="translate(-23 -28)"/><circle cx="223" cy="194.07" r="2" class="cls-3"/><polyline points="236 199.65 236 194.06 248 194.06 248 199.65" class="cls-7"/><circle cx="129.01" cy="84.29" r="13.58" class="cls-8"/><circle cx="129.01" cy="94.87" r="12" class="cls-9"/><path d="M152,171.58c-19.33,0-32,9.85-32,22v10h64v-10C184,181.43,171.33,171.58,152,171.58Z" class="cls-9" transform="translate(-23 -28)"/><path d="M166.88,173.67A51.56,51.56,0,0,0,159,172v-6.45a7,7,0,0,0-14,0V172a51.56,51.56,0,0,0-7.88,1.64,15.19,15.19,0,0,0-.12,1.91c0,8.29,15,19,15,19s15-10.71,15-19A15.19,15.19,0,0,0,166.88,173.67Z" class="cls-10" transform="translate(-23 -28)"/><rect width="52" height="10.11" x="103" y="109.88" class="cls-10" rx="5" ry="5"/><path d="M131.73,147.34a20.27,20.27,0,1,0,40.54,0v-8.78a20.27,20.27,0,0,0-40.54,0Z" class="cls-10" transform="translate(-23 -28)"/><path d="M152,115.58a22.3,22.3,0,0,1,22.28,21.54c-7-1.38-16.54-5.09-16.54-15.12,0,8.45-16.89,15.88-28,15.88A22.3,22.3,0,0,1,152,115.58Z" class="cls-8" transform="translate(-23 -28)"/><circle cx="120.22" cy="113.94" r="3.38" class="cls-3"/><circle cx="137.78" cy="113.94" r="3.38" class="cls-3"/><path d="M152,152.2a2.7,2.7,0,0,0,2.7-2.71h-5.4A2.7,2.7,0,0,0,152,152.2Z" class="cls-11" transform="translate(-23 -28)"/><path d="M147.23,158a6,6,0,0,0,9.54,0" class="cls-5" transform="translate(-23 -28)"/><polygon points="223 101 239 101 233 121 266 101 353 101 353 40 223 40 223 101" class="cls-12"/><rect width="100" height="5" x="233" y="63" class="cls-13"/><rect width="110" height="5" x="233" y="73" class="cls-13"/><rect width="92" height="5" x="233" y="83" class="cls-13"/><polygon points="131 79 115 79 121 99 88 79 1 79 1 18 131 18 131 79" class="cls-12"/><rect width="100" height="5" x="11" y="41" class="cls-13"/><rect width="110" height="5" x="11" y="51" class="cls-13"/><rect width="92" height="5" x="11" y="61" class="cls-13"/><rect width="24" height="19" x="12" y="14" class="cls-14"/><path d="M40,42V36a7,7,0,0,1,14,0v6" class="cls-7" transform="translate(-23 -28)"/><line x1="12" x2="36" y1="20.5" y2="20.5" class="cls-7"/><line x1="12" x2="36" y1="26.5" y2="26.5" class="cls-7"/><rect width="24" height="19" x="234" y="36" class="cls-14"/><path d="M262,64V58a7,7,0,0,1,14,0v6" class="cls-7" transform="translate(-23 -28)"/><line x1="234" x2="258" y1="42.5" y2="42.5" class="cls-7"/><line x1="234" x2="258" y1="48.5" y2="48.5" class="cls-7"/></svg>