<svg xmlns="http://www.w3.org/2000/svg" xmlns:xlink="http://www.w3.org/1999/xlink" width="428" height="219" version="1.1" viewBox="0 0 428 219"><title>Locked2</title><desc>Created with Sketch.</desc><defs><polygon id="path-1" points="0 .927 147.564 .927 147.564 30.853 0 30.853"/><polygon id="path-3" points=".568 .649 5.514 .649 5.514 19.658 .568 19.658"/><polygon id="path-5" points=".161 .649 5.107 .649 5.107 19.658 .161 19.658"/><polygon id="path-7" points=".597 .649 5.543 .649 5.543 19.658 .597 19.658"/><polygon id="path-9" points=".189 .649 5.136 .649 5.136 19.658 .189 19.658"/><path id="path-11" d="M3.297,7.189 L3.297,12.207 L0.431,12.207 L0.431,22.242 C0.431,23.824 1.717,25.111 3.297,25.111 L16.201,25.111 C17.782,25.111 19.068,23.824 19.068,22.242 L19.068,12.207 L16.201,12.207 L16.201,7.189 C16.201,3.632 13.306,0.737 9.748,0.737 C6.192,0.737 3.297,3.632 3.297,7.189 Z M4.731,7.189 C4.731,4.421 6.982,2.171 9.748,2.171 C12.517,2.171 14.768,4.421 14.768,7.189 L14.768,12.207 L4.731,12.207 L4.731,7.189 Z M9.032,20.808 L10.466,20.808 L10.466,16.507 L9.032,16.507 L9.032,20.808 Z"/><path id="path-13" d="M17.9615684,6.51064589 C17.8588634,6.1961782 17.5676896,5.98441544 17.2362809,5.98441544 L11.4985691,5.98441544 L9.72611483,0.527289259 L9.72611483,0.526230445 C9.62235108,0.211762754 9.33117729,0 8.99976858,0 C8.66941869,0 8.37718608,0.211762754 8.27448115,0.527289259 L6.50096808,5.98441544 L0.763256246,5.98441544 C0.431847535,5.98441544 0.140673748,6.1961782 0.037968812,6.51064589 C-0.0647361239,6.82511358 0.0453805085,7.16816924 0.314319207,7.36404979 L4.9572176,10.7374305 L3.18370453,16.1956155 C3.08099959,16.511142 3.19429267,16.8541976 3.46323137,17.0479606 C3.5966419,17.1443126 3.75334634,17.193018 3.91005078,17.193018 C4.06675522,17.193018 4.22345965,17.1443126 4.357929,17.0469017 L8.99976858,13.6745799 L13.6405493,17.0469017 C13.9084292,17.2417235 14.2694847,17.2417235 14.5373646,17.0479606 C14.8063033,16.8541976 14.9185376,16.511142 14.8158326,16.1945566 L13.0423196,10.7374305 L17.6862768,7.36404979 C17.9541567,7.16816924 18.0653321,6.82511358 17.9615684,6.51064589"/></defs><g id="Locked2" fill="none" fill-rule="evenodd" stroke="none" stroke-width="1"><ellipse id="Oval-2" cx="213.5" cy="169" fill="#008EE2" opacity=".159" rx="208.5" ry="46"/><g id="Group-60" transform="translate(134.000000, 9.000000)"><polygon id="Fill-1" fill="#FFF" points="1 162.351 146.564 162.351 146.564 44.203 1 44.203"/><path id="Fill-2" fill="#6D7A82" d="M0,43.2037 L0,163.3507 L147.565,163.3507 L147.565,142.4977 L147.565,43.2037 L0,43.2037 Z M2,45.2037 L145.565,45.2037 L145.565,142.4977 L145.565,161.3517 L2,161.3517 L2,45.2037 Z"/><polygon id="Fill-3" fill="#E5E5E5" points="14.341 70.629 35.232 70.629 35.232 55.462 14.341 55.462"/><polygon id="Fill-4" fill="#E5E5E5" points="46.954 70.629 67.844 70.629 67.844 55.462 46.954 55.462"/><polygon id="Fill-5" fill="#E5E5E5" points="79.565 70.629 100.456 70.629 100.456 55.462 79.565 55.462"/><polygon id="Fill-6" fill="#E5E5E5" points="112.176 70.629 133.067 70.629 133.067 55.462 112.176 55.462"/><polygon id="Fill-7" fill="#E5E5E5" points="14.92 96.398 35.811 96.398 35.811 81.23 14.92 81.23"/><polygon id="Fill-8" fill="#E5E5E5" points="47.532 96.398 68.423 96.398 68.423 81.23 47.532 81.23"/><polygon id="Fill-9" fill="#E5E5E5" points="80.143 96.398 101.034 96.398 101.034 81.23 80.143 81.23"/><polygon id="Fill-10" fill="#E5E5E5" points="112.754 96.398 133.645 96.398 133.645 81.23 112.754 81.23"/><polygon id="Fill-11" fill="#E5E5E5" points="14.631 122.166 35.521 122.166 35.521 106.999 14.631 106.999"/><polygon id="Fill-12" fill="#E5E5E5" points="47.243 122.166 68.134 122.166 68.134 106.999 47.243 106.999"/><polygon id="Fill-14" fill="#E5E5E5" points="112.465 122.166 133.356 122.166 133.356 106.999 112.465 106.999"/><polygon id="Fill-15" fill="#E5E5E5" points="15.209 147.934 36.1 147.934 36.1 132.767 15.209 132.767"/><polygon id="Fill-16" fill="#E5E5E5" points="47.821 147.934 68.712 147.934 68.712 132.767 47.821 132.767"/><polygon id="Fill-17" fill="#E5E5E5" points="80.433 147.934 101.323 147.934 101.323 132.767 80.433 132.767"/><polygon id="Fill-18" fill="#E5E5E5" points="113.044 147.934 133.935 147.934 133.935 132.767 113.044 132.767"/><g id="Group-50" transform="translate(0.000000, 0.351000)"><path id="Stroke-19" stroke="#F9979A" stroke-linecap="round" stroke-width="2" d="M106.3162,114.933 C106.3162,121.729273 99.0152,127.239 90.0102,127.239 C81.0042,127.239 73.7052,121.729273 73.7052,114.933 C73.7052,108.136727 81.0042,102.627 90.0102,102.627 C99.0152,102.627 106.3162,108.136727 106.3162,114.933 Z"/><g id="Group-23" opacity=".667" transform="translate(0.000000, 12.000000)"><mask id="mask-2" fill="#fff"><use xlink:href="#path-1"/></mask><path id="Fill-21" fill="#0298E6" d="M10.0564,0.9266 L137.5084,0.9266 C143.0624,0.9266 147.5644,5.4286 147.5644,10.9836 L147.5644,30.8526 L-0.0006,30.8526 L-0.0006,10.9836 C-0.0006,5.4286 4.5024,0.9266 10.0564,0.9266" mask="url(#mask-2)"/></g><path id="Fill-24" fill="#000" d="M20.0232,19.1854 C20.0232,20.1664 18.2402,20.9624 16.0412,20.9624 C13.8412,20.9624 12.0582,20.1664 12.0582,19.1854 C12.0582,18.2034 13.8412,17.4074 16.0412,17.4074 C18.2402,17.4074 20.0232,18.2034 20.0232,19.1854"/><path id="Fill-26" fill="#000" d="M31.6169,19.1854 C31.6169,20.1664 29.8339,20.9624 27.6339,20.9624 C25.4339,20.9624 23.6509,20.1664 23.6509,19.1854 C23.6509,18.2034 25.4339,17.4074 27.6339,17.4074 C29.8339,17.4074 31.6169,18.2034 31.6169,19.1854"/><g id="Group-30" transform="translate(13.000000, 0.000000)"><mask id="mask-4" fill="#fff"><use xlink:href="#path-3"/></mask><path id="Fill-28" fill="#F9DD9D" d="M3.3542,19.6576 L2.7272,19.6576 C1.5352,19.6576 0.5682,18.6906 0.5682,17.4976 L0.5682,2.8086 C0.5682,1.6156 1.5352,0.6486 2.7272,0.6486 L3.3542,0.6486 C4.5462,0.6486 5.5142,1.6156 5.5142,2.8086 L5.5142,17.4976 C5.5142,18.6906 4.5462,19.6576 3.3542,19.6576" mask="url(#mask-4)"/></g><g id="Group-33" transform="translate(25.000000, 0.000000)"><mask id="mask-6" fill="#fff"><use xlink:href="#path-5"/></mask><path id="Fill-31" fill="#F9DD9D" d="M2.947,19.6576 L2.321,19.6576 C1.128,19.6576 0.161,18.6906 0.161,17.4976 L0.161,2.8086 C0.161,1.6156 1.128,0.6486 2.321,0.6486 L2.947,0.6486 C4.14,0.6486 5.107,1.6156 5.107,2.8086 L5.107,17.4976 C5.107,18.6906 4.14,19.6576 2.947,19.6576" mask="url(#mask-6)"/></g><path id="Fill-34" fill="#000" d="M122.0525,19.1854 C122.0525,20.1664 120.2695,20.9624 118.0705,20.9624 C115.8695,20.9624 114.0865,20.1664 114.0865,19.1854 C114.0865,18.2034 115.8695,17.4074 118.0705,17.4074 C120.2695,17.4074 122.0525,18.2034 122.0525,19.1854"/><path id="Fill-36" fill="#000" d="M133.6453,19.1854 C133.6453,20.1664 131.8623,20.9624 129.6633,20.9624 C127.4633,20.9624 125.6803,20.1664 125.6803,19.1854 C125.6803,18.2034 127.4633,17.4074 129.6633,17.4074 C131.8623,17.4074 133.6453,18.2034 133.6453,19.1854"/><g id="Group-40" transform="translate(115.000000, 0.000000)"><mask id="mask-8" fill="#fff"><use xlink:href="#path-7"/></mask><path id="Fill-38" fill="#F9DD9D" d="M3.3826,19.6576 L2.7566,19.6576 C1.5636,19.6576 0.5966,18.6906 0.5966,17.4976 L0.5966,2.8086 C0.5966,1.6156 1.5636,0.6486 2.7566,0.6486 L3.3826,0.6486 C4.5756,0.6486 5.5426,1.6156 5.5426,2.8086 L5.5426,17.4976 C5.5426,18.6906 4.5756,19.6576 3.3826,19.6576" mask="url(#mask-8)"/></g><g id="Group-43" transform="translate(127.000000, 0.000000)"><mask id="mask-10" fill="#fff"><use xlink:href="#path-9"/></mask><path id="Fill-41" fill="#F9DD9D" d="M2.9763,19.6576 L2.3493,19.6576 C1.1573,19.6576 0.1893,18.6906 0.1893,17.4976 L0.1893,2.8086 C0.1893,1.6156 1.1573,0.6486 2.3493,0.6486 L2.9763,0.6486 C4.1683,0.6486 5.1363,1.6156 5.1363,2.8086 L5.1363,17.4976 C5.1363,18.6906 4.1683,19.6576 2.9763,19.6576" mask="url(#mask-10)"/></g><path id="Fill-44" fill="#F9979A" d="M167.947,45.807 C167.947,56.41 159.352,65.005 148.749,65.005 C138.146,65.005 129.551,56.41 129.551,45.807 C129.551,35.204 138.146,26.609 148.749,26.609 C159.352,26.609 167.947,35.204 167.947,45.807"/><path id="Stroke-46" stroke="#6D7A82" stroke-linecap="round" stroke-width="2" d="M167.947,45.807 C167.947,56.41 159.352,65.005 148.749,65.005 C138.146,65.005 129.551,56.41 129.551,45.807 C129.551,35.204 138.146,26.609 148.749,26.609 C159.352,26.609 167.947,35.204 167.947,45.807 Z"/><path id="Fill-48" fill="#FFF" d="M153.7673,43.2069 L143.7313,43.2069 L143.7313,38.1889 C143.7313,35.4219 145.9823,33.1709 148.7483,33.1709 C151.5163,33.1709 153.7673,35.4219 153.7673,38.1889 L153.7673,43.2069 Z M148.0323,51.8089 L149.4663,51.8089 L149.4663,47.5079 L148.0323,47.5079 L148.0323,51.8089 Z M155.2013,43.2069 L155.2013,38.1889 C155.2013,34.6319 152.3063,31.7369 148.7483,31.7369 C145.1923,31.7369 142.2973,34.6319 142.2973,38.1889 L142.2973,43.2069 L139.4303,43.2069 L139.4303,53.2429 C139.4303,54.8239 140.7163,56.1099 142.2973,56.1099 L155.2013,56.1099 C156.7823,56.1099 158.0683,54.8239 158.0683,53.2429 L158.0683,43.2069 L155.2013,43.2069 Z"/></g><g id="Group-59" transform="translate(139.000000, 31.351000)"><mask id="mask-12" fill="#fff"><use xlink:href="#path-11"/></mask><polygon id="Fill-51" fill="#FFF" points="-2.278 25.11 22.095 25.11 22.095 .737 -2.278 .737" mask="url(#mask-12)"/><polygon id="Fill-53" fill="#FFF" points="-6.34 31.88 26.157 31.88 26.157 -6.034 -6.34 -6.034" mask="url(#mask-12)"/><polygon id="Fill-54" fill="#FFF" points=".43 25.11 19.386 25.11 19.386 .737 .43 .737" mask="url(#mask-12)"/><polygon id="Fill-55" fill="#FFF" points="-6.34 31.88 25.839 31.88 25.839 -6.034 -6.34 -6.034" mask="url(#mask-12)"/><polygon id="Fill-56" fill="#FFF" points="-2.278 25.11 22.095 25.11 22.095 .737 -2.278 .737" mask="url(#mask-12)"/><polygon id="Fill-57" fill="#FFF" points=".43 25.11 19.386 25.11 19.386 .737 .43 .737" mask="url(#mask-12)"/><polygon id="Fill-58" fill="#FFF" points="-9.048 31.88 28.865 31.88 28.865 -6.034 -9.048 -6.034" mask="url(#mask-12)"/></g></g><g id="Icons/Solid/Star" opacity=".167" transform="translate(215.000000, 115.000000)"><mask id="mask-14" fill="#fff"><use xlink:href="#path-13"/></mask><use id="Mask" fill="#2B3B46" fill-rule="evenodd" xlink:href="#path-13"/><g id="Colors/3:1/Licorice" fill="#2D3B45" fill-rule="evenodd" mask="url(#mask-14)"><rect id="Rectangle" width="18" height="18" x="0" y="0"/></g></g></g></svg>