<svg xmlns="http://www.w3.org/2000/svg" xmlns:xlink="http://www.w3.org/1999/xlink" width="422" height="150" aria-hidden="true" version="1.1" viewBox="0 0 422 150"><title>Group 6</title><desc>Created with Sketch.</desc><g id="OR-Assignment" fill="none" fill-rule="evenodd" stroke="none" stroke-width="1"><g id="OR-1-Copy-7" transform="translate(-642.000000, -965.000000)"><g id="Group-6" transform="translate(644.000000, 966.000000)"><g id="Group-4" transform="translate(52.000000, 96.500000) rotate(-15.000000) translate(-52.000000, -96.500000) translate(8.000000, 60.000000)"><rect id="Rectangle" width="88" height="73" x="0" y="0" fill="#FFF" stroke="#2D3B45" stroke-width="2"/><polygon id="Path-2" fill="#ABC885" points="8 63 26.383 34.181 40.893 48.59 56.23 23 80 63"/><circle id="Oval" cx="27.5" cy="21.5" r="6.5" fill="#FDD089" stroke="#FBB03B"/></g><path id="Path-5" stroke="#8B969E" stroke-dasharray="2 4" stroke-width="2" d="M263,100.398539 C279.706524,71.5062956 304.706524,53.7067826 338,47" transform="translate(300.500000, 73.699270) scale(1, -1) rotate(20.000000) translate(-300.500000, -73.699270)"/><g id="Group-5" transform="translate(366.000000, 88.500000) rotate(15.000000) translate(-366.000000, -88.500000) translate(320.000000, 40.000000)"><rect id="Rectangle" width="88" height="62" x="3.79" y="35" fill="#FFF" stroke="#2D3B45" stroke-width="2"/><g id="Group" transform="translate(45.500000, 17.500000) rotate(-2.000000) translate(-45.500000, -17.500000) translate(1.000000, 2.000000)"><polygon id="Rectangle" stroke="#2D3B45" stroke-width="2" points="0 16.847 86.761 1 89 14.153 2.239 30"/><polygon id="Rectangle" fill="#2D3B45" points="8.726 15 13 15.763 7.274 30 3 29.237" transform="translate(8.000000, 22.500000) rotate(-5.000000) translate(-8.000000, -22.500000)"/><polygon id="Rectangle" fill="#2D3B45" points="20.726 12 25 12.763 19.274 27 15 26.237" transform="translate(20.000000, 19.500000) rotate(-5.000000) translate(-20.000000, -19.500000)"/><polygon id="Rectangle" fill="#2D3B45" points="33.726 10 38 10.763 32.274 25 28 24.237" transform="translate(33.000000, 17.500000) rotate(-5.000000) translate(-33.000000, -17.500000)"/><polygon id="Rectangle" fill="#2D3B45" points="45.726 8 50 8.763 44.274 23 40 22.237" transform="translate(45.000000, 15.500000) rotate(-5.000000) translate(-45.000000, -15.500000)"/><polygon id="Rectangle" fill="#2D3B45" points="57.726 6 62 6.763 56.274 21 52 20.237" transform="translate(57.000000, 13.500000) rotate(-5.000000) translate(-57.000000, -13.500000)"/><polygon id="Rectangle" fill="#2D3B45" points="70.726 3 75 3.763 69.274 18 65 17.237" transform="translate(70.000000, 10.500000) rotate(-5.000000) translate(-70.000000, -10.500000)"/><polygon id="Rectangle" fill="#2D3B45" points="82.726 1 87 1.763 81.274 16 77 15.237" transform="translate(82.000000, 8.500000) rotate(-5.000000) translate(-82.000000, -8.500000)"/></g><path id="Mask" fill="#FDD089" stroke="#FBB03B" stroke-width="2" d="M67.707228,67.0110386 C67.4847006,66.3342979 66.8538241,65.8785803 66.1357719,65.8785803 L53.7040629,65.8785803 L49.8637453,54.1347369 L49.8637453,54.1324583 C49.6389239,53.4557176 49.0080473,53 48.2899951,53 C47.574237,53 46.9410664,53.4557176 46.718539,54.1347369 L42.8759274,65.8785803 L30.4442184,65.8785803 C29.7261662,65.8785803 29.0952897,66.3342979 28.8727623,67.0110386 C28.6502349,67.6877793 28.888821,68.4260419 29.4715215,68.8475807 L39.5311347,76.1071626 L35.688523,87.8532845 C35.4659957,88.5323038 35.711464,89.2705664 36.2941645,89.687548 C36.5832206,89.8948995 36.9227469,90 37.2622732,90 C37.6017995,90 37.9413258,89.8948995 38.232676,89.6852694 L48.2899951,82.4279661 L58.3450201,89.6852694 C58.9254265,90.1045296 59.7077134,90.1045296 60.2881199,89.687548 C60.8708204,89.2705664 61.1139946,88.5323038 60.8914672,87.851006 L57.0488556,76.1071626 L67.1107629,68.8475807 C67.6911693,68.4260419 67.9320494,67.6877793 67.707228,67.0110386"/><rect id="Rectangle" width="88" height="11" x="4" y="35" fill="#C7CDD1" stroke="#2D3B45" stroke-width="2"/></g><path id="Path-4" stroke="#8B969E" stroke-dasharray="2 4" stroke-width="2" d="M44,50 C46.7182882,32.0313032 60.4069526,20.9848122 85.0659934,16.8605268 C109.725034,12.7362415 143.900815,23.4369409 187.593336,48.9626252" transform="translate(115.796668, 33.000000) rotate(-5.000000) translate(-115.796668, -33.000000)"/><g id="Group-2" transform="translate(150.947632, 0.000000)"><polygon id="Stroke-5" fill="#FFF" stroke="#384A58" stroke-width="2" points=".052 148 113.052 148 113.052 25.888 101.945 14.883 86.94 0 .052 0"/><polygon id="Fill-6" fill="#D2E9F6" points="18.052 81 100.052 81 100.052 70 18.052 70"/><polygon id="Fill-6" fill="#C7CDD1" points="19.052 96 92.052 96 92.052 89 19.052 89"/><polygon id="Fill-6" fill="#C7CDD1" points="19.052 112 68.052 112 68.052 105 19.052 105"/><polygon id="Fill-6" fill="#C7CDD1" points="18.052 128 59.052 128 59.052 121 18.052 121"/><g id="Icons/Lined/Text" fill="#2D3B45" transform="translate(14.052368, 25.000000)"><polygon id="Mask" points="3.556 0 27.327 0 27.327 8.627 23.944 8.627 23.944 3.489 17.316 3.489 17.316 29.511 22.344 29.511 22.344 33 8.493 33 8.493 29.511 13.521 29.511 13.521 3.489 6.938 3.489 6.938 8.627 3.556 8.627"/></g><polyline id="Path-3" stroke="#2D3B45" stroke-width="2" points="87.052 0 87.052 25.475 113.052 26"/></g></g></g></g></svg>