<svg xmlns="http://www.w3.org/2000/svg" width="21" height="21" viewBox="0 0 21 21"><title>_svg_icon_canvas</title><path id="Shape" fill="#d64227" d="M3.1,10.5a3,3,0,0,0-2.66-3,11.51,11.51,0,0,0,0,6,3,3,0,0,0,2.66-3h0Z"/><circle id="Oval" cx="4.9" cy="10.42" r=".94" fill="#d64227"/><path id="Shape-2" fill="#d64227" d="M17.9,10.5a3,3,0,0,0,2.66,3,12.4,12.4,0,0,0,.39-3,12.4,12.4,0,0,0-.39-3,3,3,0,0,0-2.66,3h0Z" data-name="Shape"/><circle id="Oval-2" cx="15.87" cy="10.42" r=".94" fill="#d64227" data-name="Oval"/><path id="Shape-3" fill="#d64227" d="M10.46,17.94a3,3,0,0,0-3,2.66,12.4,12.4,0,0,0,3,.39,12.4,12.4,0,0,0,3-.39,3,3,0,0,0-3-2.66h0Z" data-name="Shape"/><circle id="Oval-3" cx="10.38" cy="15.91" r=".94" fill="#d64227" data-name="Oval"/><path id="Shape-4" fill="#d64227" d="M10.46,3.06a3,3,0,0,0,3-2.66,12.4,12.4,0,0,0-3-.39,12.4,12.4,0,0,0-3,.39,3,3,0,0,0,3,2.66h0Z" data-name="Shape"/><circle id="Oval-4" cx="10.38" cy="4.94" r=".94" fill="#d64227" data-name="Oval"/><path id="Shape-5" fill="#d64227" d="M15.71,15.75a3,3,0,0,0-.24,4,12.16,12.16,0,0,0,4.23-4.23,3,3,0,0,0-4,.24h0Z" data-name="Shape"/><circle id="Oval-5" cx="14.3" cy="14.34" r=".94" fill="#d64227" data-name="Oval"/><path id="Shape-6" fill="#d64227" d="M5.21,5.25a3,3,0,0,0,.24-4A12.16,12.16,0,0,0,1.21,5.49a3,3,0,0,0,4-.24h0Z" data-name="Shape"/><circle id="Oval-6" cx="6.46" cy="6.5" r=".94" fill="#d64227" data-name="Oval"/><path id="Shape-7" fill="#d64227" d="M15.71,5.25a3,3,0,0,0,4,.24,12.16,12.16,0,0,0-4.23-4.23,3,3,0,0,0,.24,4h0Z" data-name="Shape"/><circle id="Oval-7" cx="14.3" cy="6.5" r=".94" fill="#d64227" data-name="Oval"/><path id="Shape-8" fill="#d64227" d="M5.21,15.75a3,3,0,0,0-4-.24,12.16,12.16,0,0,0,4.23,4.23,3,3,0,0,0-.24-4h0Z" data-name="Shape"/><circle id="Oval-8" cx="6.46" cy="14.34" r=".94" fill="#d64227" data-name="Oval"/></svg>